<svg width="35" height="35" viewBox="0 0 35 35" fill="none" xmlns="http://www.w3.org/2000/svg">
<path d="M34.2303 16.0039C35.0267 17.2942 34.0717 18.9147 32.4798 18.9722C26.6672 19.1851 20.7405 20.5432 15.1528 23.2169L13.3051 24.2144C13.3051 24.2222 13.2796 24.1736 17.7776 31.4919C18.1904 32.1615 17.9454 33.0168 17.2304 33.4037L15.7731 34.1906C15.0581 34.5767 14.143 34.3476 13.7303 33.6779L9.24365 26.4082L8.51539 26.8021C7.08461 27.5742 5.25525 27.1159 4.429 25.7774L1.06423 20.3255C0.238812 18.987 0.728747 17.2756 2.15952 16.5026L8.79689 12.9175C13.8694 9.84783 18.1678 5.78337 21.3899 1.00218C22.2394 -0.25864 24.2166 -0.222129 25.0129 1.06821L27.8919 5.73396C29.546 4.84058 31.6619 5.37117 32.6169 6.91865C33.5718 8.46613 33.0047 10.4448 31.3505 11.3381L34.2303 16.0039Z" fill="#D1E7FF"/>
</svg>
